<?xml version="1.0" standalone="no"?>
<!DOCTYPE svg PUBLIC "-//W3C//DTD SVG 20010904//EN"
 "http://www.w3.org/TR/2001/REC-SVG-20010904/DTD/svg10.dtd">
<svg version="1.0" xmlns="http://www.w3.org/2000/svg"
 width="500.000000pt" height="500.000000pt" viewBox="0 0 500.000000 500.000000"
 preserveAspectRatio="xMidYMid meet">

<g transform="translate(0.000000,500.000000) scale(0.100000,-0.100000)"
fill="#000000" stroke="none">
<path d="M827 4984 c-230 -42 -435 -158 -583 -331 -106 -126 -176 -260 -216
-420 l-23 -88 0 -1650 0 -1650 27 -96 c49 -177 134 -324 263 -454 128 -129
273 -214 452 -263 l98 -27 1655 0 1655 0 98 27 c179 49 324 134 452 263 128
128 215 278 264 455 l26 95 0 1655 0 1655 -26 95 c-49 177 -136 327 -264 455
-128 129 -273 214 -452 263 l-98 27 -1625 2 c-1370 1 -1637 -1 -1703 -13z
m493 -892 c0 -5 -75 -14 -167 -20 -186 -12 -257 -29 -294 -68 l-24 -26 0 -523
c0 -288 3 -526 6 -529 3 -3 28 -1 55 5 27 6 173 13 326 14 268 4 279 5 324 27
56 28 106 95 129 171 19 63 41 210 50 335 5 63 11 92 19 89 12 -4 12 -7 8
-441 l-2 -265 -57 -21 c-76 -28 -231 -28 -398 0 -236 39 -430 36 -612 -11 -42
-10 -80 -16 -85 -11 -4 4 1 31 12 58 52 137 79 499 61 800 -13 206 -29 309
-60 379 l-20 45 365 0 c200 0 364 -4 364 -8z m1730 -257 c0 -205 -3 -265 -12
-265 -9 0 -19 36 -30 103 -29 181 -75 277 -152 322 -71 41 -145 48 -412 43
-135 -3 -247 -8 -250 -10 -2 -3 0 -25 6 -49 6 -24 13 -128 17 -231 3 -104 8
-188 10 -188 2 0 22 9 44 20 21 11 72 25 112 30 81 11 427 13 427 4 0 -16
-235 -464 -243 -464 -11 0 -8 11 27 135 47 164 32 248 -50 275 -40 14 -131 6
-179 -15 -101 -43 -150 -190 -143 -427 3 -128 14 -155 75 -191 70 -40 399 -48
508 -12 114 38 167 127 204 344 10 58 23 107 29 109 9 3 12 -64 12 -267 l0
-271 -536 0 c-507 0 -536 1 -529 18 57 134 69 242 70 637 0 364 -11 476 -55
568 -11 22 -20 42 -20 44 0 2 241 3 535 3 l535 0 0 -265z m870 256 c0 -5 -39
-12 -87 -16 -211 -15 -284 -33 -291 -68 -7 -36 10 -68 100 -189 117 -157 185
-262 237 -366 38 -75 61 -96 61 -55 0 37 70 140 196 283 185 212 214 258 200
315 -9 37 -64 60 -188 80 -21 3 -38 10 -38 15 0 6 95 10 242 10 l241 0 -54
-57 c-59 -63 -394 -452 -447 -519 -127 -163 -147 -376 -48 -506 59 -77 178
-137 308 -156 28 -4 53 -13 56 -20 3 -9 -100 -12 -492 -12 -410 0 -496 2 -496
13 0 10 25 16 93 20 150 11 250 45 290 101 33 46 30 164 -8 266 -81 222 -284
526 -485 730 -44 43 -98 93 -121 110 l-42 30 386 0 c226 0 387 -4 387 -9z
m-2812 -1816 c231 -33 328 -33 433 1 57 19 83 24 91 16 7 -7 -71 -109 -268
-349 -230 -279 -557 -671 -622 -746 -24 -27 -11 -28 49 -6 87 34 192 35 344 5
168 -34 269 -35 316 -3 62 41 105 161 132 366 7 56 17 96 25 99 9 3 12 -63 12
-292 l0 -296 -32 -20 c-88 -54 -216 -55 -518 -4 -278 47 -372 46 -474 -5 -57
-28 -70 -31 -81 -20 -11 12 17 49 172 229 331 384 733 869 725 874 -5 3 -30
-1 -57 -9 -72 -22 -203 -18 -361 10 -166 30 -215 31 -271 6 -69 -32 -115 -140
-143 -336 -16 -112 -19 -125 -30 -125 -7 0 -9 101 -8 288 l3 287 46 23 c25 12
65 27 90 32 65 14 230 4 427 -25z m1802 -250 c0 -162 -4 -265 -10 -265 -5 0
-12 17 -15 38 -36 217 -61 289 -124 352 -70 70 -121 81 -368 81 -109 -1 -231
-4 -271 -7 -71 -7 -73 -8 -67 -31 15 -61 24 -180 25 -310 0 -79 4 -143 9 -143
5 0 14 7 21 15 29 35 106 45 337 45 l223 0 -115 -230 c-63 -126 -120 -230
-125 -230 -14 0 -14 2 19 104 71 222 40 316 -105 316 -172 0 -249 -107 -261
-366 -13 -267 19 -300 302 -311 364 -15 433 45 499 430 4 20 11 37 16 37 6 0
10 -103 10 -265 l0 -265 -535 0 c-294 0 -535 2 -535 5 0 3 6 16 14 28 35 56
63 262 72 542 10 288 -17 560 -65 658 l-18 37 533 0 534 0 0 -265z m780 257
c0 -4 -32 -13 -71 -20 -133 -23 -161 -57 -115 -137 15 -24 169 -192 344 -372
174 -180 349 -362 389 -403 39 -41 75 -71 79 -68 4 4 3 186 -2 405 l-9 399
-25 49 c-41 79 -132 112 -352 130 -49 4 -88 11 -88 16 0 5 139 9 331 9 l330 0
-21 -29 c-77 -108 -100 -312 -100 -874 0 -263 -3 -398 -10 -395 -18 6 -713
721 -856 880 -174 194 -163 183 -168 177 -2 -2 0 -24 5 -49 6 -25 14 -198 18
-385 7 -313 10 -344 29 -396 23 -57 66 -106 117 -132 29 -14 118 -34 179 -39
16 -2 31 -9 34 -15 3 -10 -53 -13 -256 -13 l-260 0 23 58 c49 121 75 311 75
552 0 333 -40 497 -147 609 l-49 51 288 0 c158 0 288 -4 288 -8z"/>
</g>
</svg>
